@startuml

class Position {
    int x
    int y
    +operator==(Position): bool
    +operator!=(Position): bool
    +operator<(Position): bool
}

abstract class Entity {
    +getPosition(): Position
    +move(Direction)
}

enum Direction {
    UP
    DOWN
    LEFT
    RIGHT
}

class SensorData {
    bool frontObstacle
    bool leftObstacle
    bool rightObstacle
    bool backObstacle
}

class Maze {
    int width
    int height
    vector<vector<int>> mazeLayout
    Position destination
    +Maze(int, int)
    +addWall(int, int): void
    +printMaze(Position): void
    +isMazeSolved(Position): bool
    +getMazeLayout(): vector<vector<int>> const&
    +uploadMazeLayout(vector<vector<int>> const&): bool
    +getDestination(): Position
    +setDestination(int, int): void
}

abstract class mazeGenerator {
    +~mazeGenerator()
    +generate(Maze&, bool isRefresh = false): void
}

class mazeGeneratorEmpty {
    +mazeGeneratorEmpty()
    +generate(Maze&, bool isRefresh = false): void
}

class mazeGeneratorPrim {
    +mazeGeneratorPrim()
    +generate(Maze&, bool isRefresh = false): void
}

class Mouse {
    Position position
    Maze &maze
    Maze &knownMaze
    Logger<string> &logger
    vector<Position> path
    mazeGeneratorEmpty* emptyMazeGenerator
    +Mouse(const Maze&, Logger<string>&, Maze&, mazeGeneratorEmpty*)
    +makeDecision(SensorData): void
    +move(Direction): void
    +getPosition(): Position
    +findPath(Position, Position, bool isFinal = false): vector<Position>
    +reset(): void
    +walkMazeStep(Logger<string>&, set<Position, less<Position>>&): void
    +static canMove(int, int, const Maze&): bool
}

class Logger<T> {
    string logFilePath
    ofstream logFile
    +Logger(string)
    +logData(T)
    +readLog(): void
}

class MainWindow {
    QGraphicsView *view
    QGraphicsScene *scene
    QPushButton *startButton
    QPushButton *stopButton
    QPushButton *generateButton
    QLabel *statusLabel
    QLabel *positionLabel
    QLabel *visitedLabel
    QLabel *timeLabel
    QTimer *timer
    Controller *controller
    +MainWindow(QWidget*, Controller*)
    +drawMaze(vector<vector<int>> const&, Position const&, Position const&): void
    +updatePositionLabel(Position const&): void
    +updateVisitedLabel(int): void
    +updateStatusLabel(SimulationState): void
    +updateTimer(): void
    +getStartButton(): QPushButton*
    +getStopButton(): QPushButton*
    +getGenerateButton(): QPushButton*
    +onStart(): void
    +onStop(): void
    +onUpdate(): void
    +resetData(): void
}

class Controller {
    Maze &maze
    Mouse *mouse
    Logger<string> &logger
    mazeGeneratorPrim *mazeGen
    bool exploring
    int elapsedTime
    +Controller(Maze&, Mouse*, Logger<string>&, mazeGeneratorPrim*)
    +startSimulation(): void
    +stopSimulation(): void
    +updateMaze(): void
    +updateTimer(): void
    +resetData(): void
    +getCurrentState(): SimulationState
    +isExploring(): bool
    +getElapsedTime(): int
    +getMousePosition(): Position
    +getMazeLayout(): vector<vector<int>>
    +getMazeDestination(): Position
    +changePhase(SimulationState): void
}

Entity <|-- Mouse
Mouse --> Maze
Mouse --> SensorData
Mouse --> Logger
Mouse --> mazeGeneratorEmpty
Maze --> Position
Entity --> Direction
Mouse --> Direction
MainWindow --> Controller
Controller --> Maze
Controller --> Mouse
Controller --> Logger
Controller --> mazeGeneratorPrim
mazeGenerator <|-- mazeGeneratorEmpty
mazeGenerator <|-- mazeGeneratorPrim

@enduml